<svg width="92.000000" height="90.000000" viewBox="0 0 92 90" fill="none" xmlns="http://www.w3.org/2000/svg" xmlns:xlink="http://www.w3.org/1999/xlink">
	<defs>
		<clipPath id="clip1_1246">
			<rect id="IMAGE" width="92.000000" height="90.000000" fill="white" fill-opacity="0"/>
		</clipPath>
	</defs>
	<g clip-path="url(#clip1_1246)">
		<path id="Vector" d="M46.88 0.88L46 0.88L5.3 0.88C2.86 0.88 0.88 2.85 0.88 5.29L0.88 84.7C0.88 87.14 2.86 89.11 5.3 89.11L46 89.11L46.88 89.11L46.88 88.23L46.88 1.76L46.88 0.88Z" stroke="#FFFFFF" stroke-opacity="1.000000" stroke-width="2.000000"/>
		<path id="Vector" d="M5.56 44.37C5.22 44.72 5.22 45.27 5.56 45.62L11.19 51.23C11.54 51.58 12.1 51.58 12.44 51.23C12.79 50.89 12.79 50.33 12.44 49.99L7.44 45L12.44 40C12.79 39.66 12.79 39.1 12.44 38.76C12.1 38.41 11.54 38.41 11.19 38.76L5.56 44.37ZM41.57 44.11L6.19 44.11L6.19 45.88L41.57 45.88L41.57 44.11Z" fill="#FFFFFF" fill-opacity="1.000000" fill-rule="nonzero"/>
		<path id="Vector" d="M92 86.47C92 88.41 90.41 90 88.46 90L47.76 90L47.76 0L88.46 0C90.41 0 92 1.58 92 3.52L92 86.47Z" fill="#FFFFFF" fill-opacity="1.000000" fill-rule="nonzero"/>
		<path id="Vector" d="M90.14 45.79C90.58 45.35 90.58 44.64 90.14 44.2L82.97 37.05C82.53 36.61 81.82 36.61 81.38 37.05C80.94 37.49 80.94 38.2 81.38 38.64L87.75 45L81.38 51.35C80.94 51.79 80.94 52.5 81.38 52.94C81.82 53.38 82.53 53.38 82.97 52.94L90.14 45.79ZM50.42 46.12L89.34 46.12L89.34 43.87L50.42 43.87L50.42 46.12Z" fill="#000000" fill-opacity="1.000000" fill-rule="nonzero"/>
	</g>
</svg>
