<svg width="128.000000" height="90.000000" viewBox="0 0 128 90" fill="none" xmlns="http://www.w3.org/2000/svg" xmlns:xlink="http://www.w3.org/1999/xlink">
	<desc>
			Created with Pixso.
	</desc>
	<defs>
		<clipPath id="clip1_1238">
			<rect id="IMAGE" width="128.000000" height="90.000000" fill="white" fill-opacity="0"/>
		</clipPath>
	</defs>
	<g clip-path="url(#clip1_1238)">
		<path id="Vector" d="M45.58 0L124.49 0C126.43 0 128 1.56 128 3.49L128 25.33C128 27.27 126.43 28.83 124.49 28.83L45.58 28.83C43.65 28.83 42.08 27.27 42.08 25.33L42.08 3.49C42.08 1.56 43.65 0 45.58 0Z" fill="#FFFFFF" fill-opacity="1.000000" fill-rule="evenodd"/>
		<path id="Vector" d="M24.54 30.58L103.45 30.58C105.38 30.58 106.95 32.14 106.95 34.07L106.95 55.92C106.95 57.85 105.38 59.41 103.45 59.41L24.54 59.41C22.61 59.41 21.04 57.85 21.04 55.92L21.04 34.07C21.04 32.14 22.61 30.58 24.54 30.58Z" fill="#FFFFFF" fill-opacity="1.000000" fill-rule="evenodd"/>
		<path id="Vector" d="M82.41 62.03C83.86 62.03 85.04 63.21 85.04 64.66L85.04 86.5C85.04 87.95 83.86 89.12 82.41 89.12L3.5 89.12C2.05 89.12 0.87 87.95 0.87 86.5L0.87 64.66C0.87 63.21 2.05 62.03 3.5 62.03L82.41 62.03Z" stroke="#FFFFFF" stroke-opacity="1.000000" stroke-width="2.000000"/>
	</g>
</svg>
