<svg width="90.000000" height="90.000000" viewBox="0 0 90 90" fill="none" xmlns="http://www.w3.org/2000/svg" xmlns:xlink="http://www.w3.org/1999/xlink">
	<desc>
			Created with Pixso.
	</desc>
	<defs>
		<clipPath id="clip1_1267">
			<rect id="IMAGE" width="90.000000" height="90.000000" fill="white" fill-opacity="0"/>
		</clipPath>
	</defs>
	<g clip-path="url(#clip1_1267)">
		<mask id="mask1_1271" mask-type="alpha" maskUnits="userSpaceOnUse" x="0.000000" y="0.000000" width="90.000000" height="90.000000">
			<path id="Vector" d="M45 0C69.85 0 90 20.14 90 45C90 69.85 69.85 90 45 90C20.14 90 0 69.85 0 45C0 20.14 20.14 0 45 0Z" fill="#FFFFFF" fill-opacity="1.000000" fill-rule="evenodd"/>
		</mask>
		<g mask="url(#mask1_1271)">
			<path id="Vector" d="M45 0C69.85 0 90 20.14 90 45C90 69.85 69.85 90 45 90C20.14 90 0 69.85 0 45C0 20.14 20.14 0 45 0Z" fill="#FFFFFF" fill-opacity="1.000000" fill-rule="evenodd"/>
			<path id="Vector" d="M89.42 46.44L89.92 46.51L89.92 46.01L89.92 46L89.92 46L89.92 46L89.92 46L89.92 46L89.92 45.99L89.92 45.99L89.92 45.99L89.92 45.99L89.92 45.98L89.92 45.98L89.92 45.98L89.92 45.98L89.92 45.97L89.92 45.97L89.92 45.97L89.92 45.97L89.92 45.96L89.92 45.96L89.92 45.96L89.92 45.96L89.92 45.96L89.92 45.95L89.92 45.95L89.92 45.95L89.92 45.95L89.92 45.94L89.92 45.94L89.92 45.94L89.92 45.94L89.92 45.94L89.92 45.93L89.92 45.93L89.92 45.93L89.92 45.93L89.92 45.92L89.92 45.92L89.92 45.92L89.92 45.92L89.92 45.91L89.92 45.91L89.92 45.91L89.92 45.91L89.92 45.91L89.92 45.9L89.92 45.9L89.92 45.9L89.92 45.9L89.92 45.9L89.92 45.89L89.92 45.89L89.92 45.89L89.92 45.89L89.92 45.88L89.92 45.88L89.92 45.88L89.92 45.88L89.92 45.88L89.92 45.87L89.92 45.87L89.92 45.87L89.92 45.87L89.92 45.87L89.92 45.86L89.92 45.86L89.92 45.86L89.92 45.86L89.92 45.86L89.92 45.85L89.92 45.85L89.92 45.85L89.92 45.85L89.92 45.84L89.92 45.84L89.92 45.84L89.92 45.84L89.92 45.84L89.92 45.83L89.92 45.83L89.92 45.83L89.92 45.83L89.92 45.83L89.92 45.82L89.92 45.82L89.92 45.82L89.92 45.82L89.92 45.82L89.92 45.81L89.92 45.81L89.92 45.81L89.92 45.81L89.92 45.81L89.92 45.8L89.92 45.8L89.92 45.8L89.92 45.8L89.92 45.8L89.92 45.79L89.92 45.79L89.92 45.79L89.92 45.79L89.92 45.79L89.92 45.78L89.92 45.78L89.92 45.78L89.92 45.78L89.92 45.78L89.92 45.77L89.92 45.77L89.92 45.77L89.92 45.77L89.92 45.77L89.92 45.76L89.92 45.76L89.92 45.76L89.92 45.76L89.92 45.76L89.92 45.75L89.92 45.75L89.92 45.75L89.92 45.75L89.92 45.75L89.92 45.74L89.92 45.74L89.92 45.74L89.92 45.74L89.92 45.74L89.92 45.73L89.92 45.73L89.92 45.73L89.92 45.73L89.92 45.73L89.92 45.73L89.92 45.72L89.92 45.72L89.92 45.72L89.92 45.72L89.92 45.72L89.92 45.71L89.92 45.71L89.92 45.71L89.92 45.71L89.92 45.71L89.92 45.7L89.92 45.7L89.92 45.7L89.92 45.7L89.92 45.7L89.92 45.69L89.92 45.69L89.92 45.69L89.92 45.69L89.92 45.69L89.92 45.69L89.92 45.68L89.92 45.68L89.92 45.68L89.92 45.68L89.92 45.68L89.92 45.67L89.92 45.67L89.92 45.67L89.92 45.67L89.92 45.67L89.92 45.66L89.92 45.66L89.92 45.66L89.92 45.66L89.92 45.66L89.92 45.66L89.92 45.65L89.92 45.65L89.92 45.65L89.92 45.65L89.92 45.65L89.92 45.64L89.92 45.64L89.92 45.64L89.92 45.64L89.92 45.64L89.92 45.64L89.92 45.63L89.92 45.63L89.92 45.63L89.92 45.63L89.92 45.63L89.92 45.62L89.92 45.62L89.92 45.62L89.92 45.62L89.92 45.62L89.92 45.62L89.92 45.61L89.92 45.61L89.92 45.61L89.92 45.61L89.92 45.61L89.92 45.6L89.92 45.6L89.92 45.6L89.92 45.6L89.92 45.6L89.92 45.6L89.92 45.59L89.92 45.59L89.92 45.59L89.92 45.59L89.92 45.59L89.92 45.58L89.92 45.58L89.92 45.58L89.92 45.58L89.92 45.58L89.92 45.58L89.92 45.57L89.92 45.57L89.92 45.57L89.92 45.57L89.92 45.57L89.92 45.57L89.92 45.56L89.92 45.56L89.92 45.56L89.92 45.56L89.92 45.56L89.92 45.55L89.92 45.55L89.92 45.55L89.92 45.55L89.92 45.55L89.92 45.55L89.92 45.54L89.92 45.54L89.92 45.54L89.92 45.54L89.92 45.54L89.92 45.54L89.92 45.53L89.92 45.53L89.92 45.53L89.92 45.53L89.92 45.53L89.92 45.52L89.92 45.52L89.92 45.52L89.92 45.52L89.92 45.52L89.92 45.52L89.92 45.51L89.92 45.51L89.92 45.51L89.92 45.51L89.92 45.51L89.92 45.5L89.92 45.5L89.92 45.5L89.92 45.5L89.92 45.5L89.92 45.5L89.92 45.49L89.92 45.49L89.92 45.49L89.92 45.49L89.92 45.49L89.92 45.49L89.92 45.48L89.92 45.48L89.92 45.48L89.92 45.48L89.92 45.48L89.92 45.47L89.92 45.47L89.92 45.47L89.92 45.47L89.92 45.47L89.92 45.47L89.92 45.46L89.92 45.46L89.92 45.46L89.92 45.46L89.92 45.46L89.92 45.46L89.92 45.45L89.92 45.45L89.92 45.45L89.92 45.45L89.92 45.45L89.92 45.44L89.92 45.44L89.92 45.44L89.92 45.44L89.92 45.44L89.92 45.43L89.92 45.43L89.92 45.43L89.92 45.43L89.92 45.43L89.92 45.43L89.92 45.42L89.92 45.42L89.92 45.42L89.92 45.42L89.92 45.42L89.92 45.41L89.92 45.41L89.92 45.41L89.92 45.41L89.92 45.41L89.92 45.41L89.92 45.4L89.92 45.4L89.92 45.4L89.92 45.4L89.92 45.4L89.92 45.4L89.92 45.39L89.92 45.39L89.92 45.39L89.92 45.39L89.92 45.39L89.92 45.38L89.92 45.38L89.92 45.38L89.92 45.38L89.92 45.38L89.92 45.38L89.92 45.37L89.92 45.37L89.92 45.37L89.92 45.37L89.92 45.37L89.92 45.36L89.92 45.36L89.92 45.36L89.92 45.36L89.92 45.36L89.92 45.36L89.92 45.35L89.92 45.35L89.92 45.35L89.92 45.35L89.92 45.35L89.92 45.34L89.92 45.34L89.92 45.34L89.92 45.34L89.92 45.34L89.92 45.33L89.92 45.33L89.92 45.33L89.92 45.33L89.92 45.33L89.92 45.33L89.92 45.32L89.92 45.32L89.92 45.32L89.92 45.32L89.92 45.32L89.92 45.31L89.92 45.31L89.92 45.31L89.92 45.31L89.92 45.31L89.92 45.31L89.92 45.3L89.92 45.3L89.92 45.3L89.92 45.3L89.92 45.3L89.92 45.29L89.92 45.29L89.92 45.29L89.92 45.29L89.92 45.29L89.92 45.28L89.92 45.28L89.92 45.28L89.92 45.28L89.92 45.28L89.92 45.27L89.92 45.27L89.92 45.27L89.92 45.27L89.92 45.27L89.92 45.27L89.92 45.26L89.92 45.26L89.92 45.26L89.92 45.26L89.92 45.26L89.92 45.25L89.92 45.25L89.92 45.25L89.92 45.25L89.92 45.25L89.92 45.24L89.92 45.24L89.92 45.24L89.92 45.24L89.92 45.24L89.92 45.23L89.92 45.23L89.92 45.23L89.92 45.23L89.92 45.23L89.92 45.22L89.92 45.22L89.92 45.22L89.92 45.22L89.92 45.22L89.92 45.21L89.92 45.21L89.92 45.21L89.92 45.21L89.92 45.21L89.92 45.2L89.92 45.2L89.92 45.2L89.92 45.2L89.92 45.2L89.92 45.19L89.92 45.19L89.92 45.19L89.92 45.19L89.92 45.19L89.92 45.18L89.92 45.18L89.92 45.18L89.92 45.18L89.92 45.18L89.92 45.17L89.92 45.17L89.92 45.17L89.92 45.17L89.92 45.17L89.92 45.16L89.92 45.16L89.92 45.16L89.92 45.16L89.92 45.16L89.92 45.15L89.92 45.15L89.92 45.15L89.92 45.15L89.92 45.14L89.92 45.14L89.92 45.14L89.92 45.14L89.92 45.14L89.92 45.13L89.92 45.13L89.92 45.13L89.92 45.13L89.92 45.13L89.92 45.12L89.92 45.12L89.92 45.12L89.92 45.12L89.92 45.12L89.92 45.11L89.92 45.11L89.92 45.11L89.92 45.11L89.92 45.1L89.92 45.1L89.92 45.1L89.92 45.1L89.92 45.1L89.92 45.09L89.92 45.09L89.92 45.09L89.92 45.09L89.92 45.08L89.92 45.08L89.92 45.08L89.92 45.08L89.92 45.08L89.92 45.07L89.92 45.07L89.92 45.07L89.92 45.07L89.92 45.06L89.92 45.06L89.92 45.06L89.92 45.06L89.92 45.06L89.92 45.05L89.92 45.05L89.92 45.05L89.92 45.05L89.92 45.04L89.92 45.04L89.92 45.04L89.92 45.04L89.92 45.04L89.92 45.03L89.92 45.03L89.92 45.03L89.92 45.03L89.92 45.02L89.92 45.02L89.92 45.02L89.92 45.02L89.92 45.01L89.92 45.01L89.92 45.01L89.92 45.01L89.92 45L89.92 45L89.92 45L89.92 45L89.92 45C89.92 34.37 86.04 24.37 79.91 16.81L79.62 16.45L79.27 16.77C71.02 24.42 61.56 30.45 51.5 34.68L51.03 34.87L51.29 35.31C53.49 39.12 55.1 43.13 56.72 47.18L56.85 47.52L57.21 47.45C63.45 46.24 69.69 45.64 76.13 45.64C80.17 45.64 85.2 45.84 89.42 46.44ZM77.04 14.18L77.38 13.87L77.05 13.54C68.89 5.38 57.66 0.07 44.8 -0.13L44.79 -0.13C38.26 -0.13 31.93 1.3 26.21 3.95L25.56 4.25L26.11 4.7C35.58 12.35 43.43 21.41 49.26 31.47L49.46 31.8L49.81 31.65C59.77 27.59 68.92 21.7 77.04 14.18ZM22.82 6.23L22.59 6.04L22.33 6.2C10.89 12.93 2.72 24.57 0.68 38.05L0.61 38.49L1.05 38.56C4.92 39.17 8.79 39.37 12.64 39.37C24.22 39.37 35.4 37.34 45.96 33.27L46.45 33.09L46.18 32.64C40.29 22.68 32.37 13.74 22.82 6.23ZM0.58 41.73L0.07 41.65L0.07 42.16L0.07 42.17L0.07 42.18L0.07 42.18L0.07 42.19L0.07 42.19L0.07 42.2L0.07 42.21L0.07 42.21L0.07 42.22L0.07 42.22L0.07 42.23L0.07 42.24L0.07 42.24L0.07 42.25L0.07 42.25L0.07 42.26L0.07 42.26L0.07 42.27L0.07 42.28L0.07 42.28L0.07 42.29L0.07 42.29L0.07 42.3L0.07 42.31L0.07 42.31L0.07 42.32L0.07 42.32L0.07 42.33L0.07 42.33L0.07 42.34L0.07 42.35L0.07 42.35L0.07 42.36L0.07 42.36L0.07 42.37L0.07 42.37L0.07 42.38L0.07 42.39L0.07 42.39L0.07 42.4L0.07 42.4L0.07 42.41L0.07 42.41L0.07 42.42L0.07 42.43L0.07 42.43L0.07 42.44L0.07 42.44L0.07 42.45L0.07 42.46L0.07 42.46L0.07 42.47L0.07 42.47L0.07 42.48L0.07 42.48L0.07 42.49L0.07 42.5L0.07 42.5L0.07 42.51L0.07 42.51L0.07 42.52L0.07 42.52L0.07 42.53L0.07 42.54L0.07 42.54L0.07 42.55L0.07 42.55L0.07 42.56L0.07 42.56L0.07 42.57L0.07 42.57L0.07 42.58L0.07 42.59L0.07 42.59L0.07 42.6L0.07 42.6L0.07 42.61L0.07 42.61L0.07 42.62L0.07 42.62L0.07 42.63L0.07 42.64L0.07 42.64L0.07 42.65L0.07 42.65L0.07 42.66L0.07 42.66L0.07 42.67L0.07 42.68L0.07 42.68L0.07 42.69L0.07 42.69L0.07 42.7L0.07 42.7L0.07 42.71L0.07 42.71L0.07 42.72L0.07 42.73L0.07 42.73L0.07 42.74L0.07 42.74L0.07 42.75L0.07 42.75L0.07 42.76L0.07 42.76L0.07 42.77L0.07 42.78L0.07 42.78L0.07 42.79L0.07 42.79L0.07 42.8L0.07 42.8L0.07 42.81L0.07 42.81L0.07 42.82L0.07 42.83L0.07 42.83L0.07 42.84L0.07 42.84L0.07 42.85L0.07 42.85L0.07 42.86L0.07 42.86L0.07 42.87L0.07 42.87L0.07 42.88L0.07 42.89L0.07 42.89L0.07 42.9L0.07 42.9L0.07 42.91L0.07 42.91L0.07 42.92L0.07 42.92L0.07 42.93L0.07 42.93L0.07 42.94L0.07 42.95L0.07 42.95L0.07 42.96L0.07 42.96L0.07 42.97L0.07 42.97L0.07 42.98L0.07 42.98L0.07 42.99L0.07 43L0.07 43L0.07 43.01L0.07 43.01L0.07 43.02L0.07 43.02L0.07 43.03L0.07 43.03L0.07 43.04L0.07 43.04L0.07 43.05L0.07 43.05L0.07 43.06L0.07 43.07L0.07 43.07L0.07 43.08L0.07 43.08L0.07 43.09L0.07 43.09L0.07 43.1L0.07 43.1L0.07 43.11L0.07 43.11L0.07 43.12L0.07 43.12L0.07 43.13L0.07 43.14L0.07 43.14L0.07 43.15L0.07 43.15L0.07 43.16L0.07 43.16L0.07 43.17L0.07 43.17L0.07 43.18L0.07 43.18L0.07 43.19L0.07 43.2L0.07 43.2L0.07 43.21L0.07 43.21L0.07 43.22L0.07 43.22L0.07 43.23L0.07 43.23L0.07 43.24L0.07 43.24L0.07 43.25L0.07 43.25L0.07 43.26L0.07 43.26L0.07 43.27L0.07 43.28L0.07 43.28L0.07 43.29L0.07 43.29L0.07 43.3L0.07 43.3L0.07 43.31L0.07 43.31L0.07 43.32L0.07 43.32L0.07 43.33L0.07 43.33L0.07 43.34L0.07 43.34L0.07 43.35L0.07 43.36L0.07 43.36L0.07 43.37L0.07 43.37L0.07 43.38L0.07 43.38L0.07 43.39L0.07 43.39L0.07 43.4L0.07 43.4L0.07 43.41L0.07 43.41L0.07 43.42L0.07 43.43L0.07 43.43L0.07 43.44L0.07 43.44L0.07 43.45L0.07 43.45L0.07 43.46L0.07 43.46L0.07 43.47L0.07 43.47L0.07 43.48L0.07 43.48L0.07 43.49L0.07 43.5L0.07 43.5L0.07 43.5L0.07 43.51L0.07 43.52L0.07 43.52L0.07 43.53L0.07 43.53L0.07 43.54L0.07 43.54L0.07 43.55L0.07 43.55L0.07 43.56L0.07 43.56L0.07 43.57L0.07 43.57L0.07 43.58L0.07 43.58L0.07 43.59L0.07 43.6L0.07 43.6L0.07 43.61L0.07 43.61L0.07 43.62L0.07 43.62L0.07 43.63L0.07 43.63L0.07 43.64L0.07 43.64L0.07 43.65L0.07 43.65L0.07 43.66L0.07 43.66L0.07 43.67L0.07 43.68L0.07 43.68L0.07 43.69L0.07 43.69L0.07 43.7L0.07 43.7L0.07 43.71L0.07 43.71L0.07 43.72L0.07 43.72L0.07 43.73L0.07 43.73L0.07 43.74L0.07 43.75L0.07 43.75L0.07 43.76L0.07 43.76L0.07 43.77L0.07 43.77L0.07 43.78L0.07 43.78L0.07 43.79L0.07 43.79L0.07 43.8L0.07 43.8L0.07 43.81L0.07 43.81L0.07 43.82L0.07 43.83L0.07 43.83L0.07 43.84L0.07 43.84L0.07 43.85L0.07 43.85L0.07 43.86L0.07 43.86L0.07 43.87L0.07 43.87L0.07 43.88L0.07 43.88L0.07 43.89L0.07 43.9L0.07 43.9L0.07 43.91L0.07 43.91L0.07 43.92L0.07 43.92L0.07 43.93L0.07 43.93L0.07 43.94L0.07 43.94L0.07 43.95L0.07 43.95L0.07 43.96L0.07 43.96L0.07 43.97L0.07 43.98L0.07 43.98L0.07 43.99L0.07 43.99L0.07 44L0.07 44L0.07 44.01L0.07 44.01L0.07 44.02L0.07 44.02L0.07 44.03L0.07 44.04L0.07 44.04L0.07 44.05L0.07 44.05L0.07 44.06L0.07 44.06L0.07 44.07L0.07 44.07L0.07 44.08L0.07 44.08L0.07 44.09L0.07 44.09L0.07 44.1L0.07 44.11L0.07 44.11L0.07 44.12L0.07 44.12L0.07 44.13L0.07 44.13L0.07 44.14L0.07 44.14L0.07 44.15L0.07 44.15L0.07 44.16L0.07 44.16L0.07 44.17L0.07 44.18L0.07 44.18L0.07 44.19L0.07 44.19L0.07 44.2L0.07 44.2L0.07 44.21L0.07 44.21L0.07 44.22L0.07 44.22L0.07 44.23L0.07 44.24L0.07 44.24L0.07 44.25L0.07 44.25L0.07 44.26L0.07 44.26L0.07 44.27L0.07 44.27L0.07 44.28L0.07 44.29L0.07 44.29L0.07 44.3L0.07 44.3L0.07 44.31L0.07 44.31L0.07 44.32L0.07 44.32L0.07 44.33L0.07 44.33L0.07 44.34L0.07 44.35L0.07 44.35L0.07 44.36L0.07 44.36L0.07 44.37L0.07 44.37L0.07 44.38L0.07 44.38L0.07 44.39L0.07 44.4L0.07 44.4L0.07 44.41L0.07 44.41L0.07 44.42L0.07 44.42L0.07 44.43L0.07 44.43L0.07 44.44L0.07 44.45L0.07 44.45L0.07 44.46L0.07 44.46L0.07 44.47L0.07 44.47L0.07 44.48L0.07 44.48L0.07 44.49L0.07 44.5L0.07 44.5L0.07 44.51L0.07 44.51L0.07 44.52L0.07 44.52L0.07 44.53L0.07 44.54L0.07 44.54L0.07 44.55L0.07 44.55L0.07 44.56L0.07 44.56L0.07 44.57L0.07 44.57L0.07 44.58L0.07 44.58L0.07 44.59L0.07 44.6L0.07 44.6L0.07 44.61L0.07 44.61L0.07 44.62L0.07 44.62L0.07 44.63L0.07 44.64L0.07 44.64L0.07 44.65L0.07 44.65L0.07 44.66L0.07 44.66L0.07 44.67L0.07 44.68L0.07 44.68L0.07 44.69L0.07 44.69L0.07 44.7L0.07 44.71L0.07 44.71L0.07 44.72L0.07 44.72L0.07 44.73L0.07 44.73L0.07 44.74L0.07 44.75L0.07 44.75L0.07 44.76L0.07 44.76L0.07 44.77L0.07 44.77L0.07 44.78L0.07 44.79L0.07 44.79L0.07 44.8L0.07 44.8L0.07 44.81L0.07 44.81L0.07 44.82L0.07 44.83L0.07 44.83L0.07 44.84L0.07 44.84L0.07 44.85L0.07 44.85L0.07 44.86L0.07 44.87L0.07 44.87L0.07 44.88L0.07 44.88L0.07 44.89L0.07 44.9L0.07 44.9L0.07 44.91L0.07 44.91L0.07 44.92L0.07 44.92L0.07 44.93L0.07 44.94L0.07 44.94L0.07 44.95L0.07 44.95L0.07 44.96L0.07 44.97L0.07 44.97L0.07 44.98L0.07 44.98L0.07 44.99L0.07 45C0.07 55 3.34 63.99 8.85 71.54L9.14 71.94L9.5 71.61C21.99 60.13 36.88 52.08 52.98 48.26L53.47 48.14L53.3 47.67C51.88 43.82 50.25 39.96 48.21 36.29L48.03 35.95L47.67 36.09C36.6 40.32 24.72 42.53 12.64 42.53C8.61 42.53 4.59 42.33 0.58 41.73ZM11.33 73.99L11.02 74.28L11.3 74.6C19.47 84 31.52 89.92 45 89.92C49.9 89.92 54.59 89.1 59.08 87.68L59.36 87.59L59.39 87.3C59.59 85.26 59.59 83.42 59.59 81.4L59.59 81.39C59.59 71.03 57.97 61.08 54.71 51.53L54.59 51.15L54.2 51.24C38.35 54.9 23.52 62.62 11.33 73.99ZM62.75 85.64L62.75 86.32L63.37 86.04C77.46 79.71 87.88 66.24 89.72 50.1L89.77 49.65L89.32 49.61C85.07 49.21 80.2 48.8 76.13 48.8C70.04 48.8 64.15 49.41 58.27 50.42L57.76 50.51L57.92 51C61.14 60.66 62.75 70.92 62.75 81.39L62.75 81.4L62.75 81.41L62.75 81.42L62.75 81.43L62.75 81.43L62.75 81.44L62.75 81.45L62.75 81.46L62.75 81.47L62.75 81.48L62.75 81.48L62.75 81.49L62.75 81.5L62.75 81.51L62.75 81.52L62.75 81.53L62.75 81.53L62.75 81.54L62.75 81.55L62.75 81.56L62.75 81.57L62.75 81.58L62.75 81.58L62.75 81.59L62.75 81.6L62.75 81.61L62.75 81.62L62.75 81.62L62.75 81.63L62.75 81.64L62.75 81.65L62.75 81.66L62.75 81.67L62.75 81.67L62.75 81.68L62.75 81.69L62.75 81.7L62.75 81.71L62.75 81.72L62.75 81.72L62.75 81.73L62.75 81.74L62.75 81.75L62.75 81.76L62.75 81.77L62.75 81.77L62.75 81.78L62.75 81.79L62.75 81.8L62.75 81.81L62.75 81.82L62.75 81.82L62.75 81.83L62.75 81.84L62.75 81.85L62.75 81.86L62.75 81.87L62.75 81.87L62.75 81.88L62.75 81.89L62.75 81.9L62.75 81.91L62.75 81.91L62.75 81.92L62.75 81.93L62.75 81.94L62.75 81.95L62.75 81.96L62.75 81.96L62.75 81.97L62.75 81.98L62.75 81.99L62.75 82L62.75 82.01L62.75 82.01L62.75 82.02L62.75 82.03L62.75 82.04L62.75 82.05L62.75 82.06L62.75 82.06L62.75 82.07L62.75 82.08L62.75 82.09L62.75 82.1L62.75 82.11L62.75 82.11L62.75 82.12L62.75 82.13L62.75 82.14L62.75 82.15L62.75 82.16L62.75 82.16L62.75 82.17L62.75 82.18L62.75 82.19L62.75 82.2L62.75 82.21L62.75 82.21L62.75 82.22L62.75 82.23L62.75 82.24L62.75 82.25L62.75 82.25L62.75 82.26L62.75 82.27L62.75 82.28L62.75 82.29L62.75 82.3L62.75 82.3L62.75 82.31L62.75 82.32L62.75 82.33L62.75 82.34L62.75 82.35L62.75 82.35L62.75 82.36L62.75 82.37L62.75 82.38L62.75 82.39L62.75 82.4L62.75 82.4L62.75 82.41L62.75 82.42L62.75 82.43L62.75 82.44L62.75 82.45L62.75 82.45L62.75 82.46L62.75 82.47L62.75 82.48L62.75 82.49L62.75 82.5L62.75 82.5L62.75 82.51L62.75 82.52L62.75 82.53L62.75 82.54L62.75 82.54L62.75 82.55L62.75 82.56L62.75 82.57L62.75 82.58L62.75 82.59L62.75 82.59L62.75 82.6L62.75 82.61L62.75 82.62L62.75 82.63L62.75 82.64L62.75 82.64L62.75 82.65L62.75 82.66L62.75 82.67L62.75 82.68L62.75 82.69L62.75 82.69L62.75 82.7L62.75 82.71L62.75 82.72L62.75 82.73L62.75 82.74L62.75 82.74L62.75 82.75L62.75 82.76L62.75 82.77L62.75 82.78L62.75 82.79L62.75 82.79L62.75 82.8L62.75 82.81L62.75 82.82L62.75 82.83L62.75 82.84L62.75 82.84L62.75 82.85L62.75 82.86L62.75 82.87L62.75 82.88L62.75 82.89L62.75 82.89L62.75 82.9L62.75 82.91L62.75 82.92L62.75 82.93L62.75 82.94L62.75 82.94L62.75 82.95L62.75 82.96L62.75 82.97L62.75 82.98L62.75 82.99L62.75 82.99L62.75 83L62.75 83.01L62.75 83.02L62.75 83.03L62.75 83.03L62.75 83.04L62.75 83.05L62.75 83.06L62.75 83.07L62.75 83.08L62.75 83.08L62.75 83.09L62.75 83.1L62.75 83.11L62.75 83.12L62.75 83.13L62.75 83.13L62.75 83.14L62.75 83.15L62.75 83.16L62.75 83.17L62.75 83.18L62.75 83.18L62.75 83.19L62.75 83.2L62.75 83.21L62.75 83.22L62.75 83.23L62.75 83.23L62.75 83.24L62.75 83.25L62.75 83.26L62.75 83.27L62.75 83.28L62.75 83.28L62.75 83.29L62.75 83.3L62.75 83.31L62.75 83.32L62.75 83.33L62.75 83.33L62.75 83.34L62.75 83.35L62.75 83.36L62.75 83.37L62.75 83.37L62.75 83.38L62.75 83.39L62.75 83.4L62.75 83.41L62.75 83.42L62.75 83.42L62.75 83.43L62.75 83.44L62.75 83.45L62.75 83.46L62.75 83.47L62.75 83.47L62.75 83.48L62.75 83.49L62.75 83.5L62.75 83.51L62.75 83.52L62.75 83.52L62.75 83.53L62.75 83.54L62.75 83.55L62.75 83.56L62.75 83.57L62.75 83.57L62.75 83.58L62.75 83.59L62.75 83.6L62.75 83.61L62.75 83.62L62.75 83.62L62.75 83.63L62.75 83.64L62.75 83.65L62.75 83.66L62.75 83.66L62.75 83.67L62.75 83.68L62.75 83.69L62.75 83.7L62.75 83.71L62.75 83.71L62.75 83.72L62.75 83.73L62.75 83.74L62.75 83.75L62.75 83.76L62.75 83.76L62.75 83.77L62.75 83.78L62.75 83.79L62.75 83.8L62.75 83.81L62.75 83.81L62.75 83.82L62.75 83.83L62.75 83.84L62.75 83.85L62.75 83.86L62.75 83.86L62.75 83.87L62.75 83.88L62.75 83.89L62.75 83.9L62.75 83.91L62.75 83.91L62.75 83.92L62.75 83.93L62.75 83.94L62.75 83.95L62.75 83.96L62.75 83.96L62.75 83.97L62.75 83.98L62.75 83.99L62.75 84L62.75 84L62.75 84.01L62.75 84.02L62.75 84.03L62.75 84.04L62.75 84.05L62.75 84.05L62.75 84.06L62.75 84.07L62.75 84.08L62.75 84.09L62.75 84.1L62.75 84.1L62.75 84.11L62.75 84.12L62.75 84.13L62.75 84.14L62.75 84.15L62.75 84.15L62.75 84.16L62.75 84.17L62.75 84.18L62.75 84.19L62.75 84.2L62.75 84.2L62.75 84.21L62.75 84.22L62.75 84.23L62.75 84.24L62.75 84.25L62.75 84.25L62.75 84.26L62.75 84.27L62.75 84.28L62.75 84.29L62.75 84.29L62.75 84.3L62.75 84.31L62.75 84.32L62.75 84.33L62.75 84.34L62.75 84.34L62.75 84.35L62.75 84.36L62.75 84.37L62.75 84.38L62.75 84.39L62.75 84.39L62.75 84.4L62.75 84.41L62.75 84.42L62.75 84.43L62.75 84.44L62.75 84.44L62.75 84.45L62.75 84.46L62.75 84.47L62.75 84.48L62.75 84.49L62.75 84.49L62.75 84.5L62.75 84.51L62.75 84.52L62.75 84.53L62.75 84.54L62.75 84.54L62.75 84.55L62.75 84.56L62.75 84.57L62.75 84.58L62.75 84.59L62.75 84.59L62.75 84.6L62.75 84.61L62.75 84.62L62.75 84.63L62.75 84.64L62.75 84.64L62.75 84.65L62.75 84.66L62.75 84.67L62.75 84.68L62.75 84.69L62.75 84.69L62.75 84.7L62.75 84.71L62.75 84.72L62.75 84.73L62.75 84.74L62.75 84.74L62.75 84.75L62.75 84.76L62.75 84.77L62.75 84.78L62.75 84.78L62.75 84.79L62.75 84.8L62.75 84.81L62.75 84.82L62.75 84.83L62.75 84.83L62.75 84.84L62.75 84.85L62.75 84.86L62.75 84.87L62.75 84.88L62.75 84.88L62.75 84.89L62.75 84.9L62.75 84.91L62.75 84.92L62.75 84.93L62.75 84.93L62.75 84.94L62.75 84.95L62.75 84.96L62.75 84.97L62.75 84.98L62.75 84.98L62.75 84.99L62.75 85L62.75 85.01L62.75 85.02L62.75 85.03L62.75 85.03L62.75 85.04L62.75 85.05L62.75 85.06L62.75 85.07L62.75 85.08L62.75 85.08L62.75 85.09L62.75 85.1L62.75 85.11L62.75 85.12L62.75 85.12L62.75 85.13L62.75 85.14L62.75 85.15L62.75 85.16L62.75 85.17L62.75 85.17L62.75 85.18L62.75 85.19L62.75 85.2L62.75 85.21L62.75 85.22L62.75 85.22L62.75 85.23L62.75 85.24L62.75 85.25L62.75 85.26L62.75 85.27L62.75 85.27L62.75 85.28L62.75 85.29L62.75 85.3L62.75 85.31L62.75 85.32L62.75 85.32L62.75 85.33L62.75 85.34L62.75 85.35L62.75 85.36L62.75 85.37L62.75 85.37L62.75 85.38L62.75 85.39L62.75 85.4L62.75 85.41L62.75 85.41L62.75 85.42L62.75 85.43L62.75 85.44L62.75 85.45L62.75 85.46L62.75 85.46L62.75 85.47L62.75 85.48L62.75 85.49L62.75 85.5L62.75 85.51L62.75 85.51L62.75 85.52L62.75 85.53L62.75 85.54L62.75 85.55L62.75 85.56L62.75 85.56L62.75 85.57L62.75 85.58L62.75 85.59L62.75 85.6L62.75 85.61L62.75 85.61L62.75 85.62L62.75 85.63L62.75 85.64ZM-3.09 45C-3.09 18.55 18.55 -3.09 45 -3.09C71.44 -3.09 93.08 18.55 93.08 45C93.08 71.44 71.44 93.08 45 93.08C18.55 93.08 -3.09 71.44 -3.09 45Z" fill="#131313" fill-opacity="1.000000" fill-rule="nonzero"/>
			<path id="Vector" d="M89.92 46.52L89.92 46.01L89.92 46L89.92 46L89.92 46L89.92 46L89.92 46L89.92 45.99L89.92 45.99L89.92 45.99L89.92 45.99L89.92 45.98L89.92 45.98L89.92 45.98L89.92 45.98L89.92 45.97L89.92 45.97L89.92 45.97L89.92 45.97L89.92 45.96L89.92 45.96L89.92 45.96L89.92 45.96L89.92 45.96L89.92 45.95L89.92 45.95L89.92 45.95L89.92 45.95L89.92 45.94L89.92 45.94L89.92 45.94L89.92 45.94L89.92 45.94L89.92 45.93L89.92 45.93L89.92 45.93L89.92 45.93L89.92 45.92L89.92 45.92L89.92 45.92L89.92 45.92L89.92 45.91L89.92 45.91L89.92 45.91L89.92 45.91L89.92 45.91L89.92 45.9L89.92 45.9L89.92 45.9L89.92 45.9L89.92 45.9L89.92 45.89L89.92 45.89L89.92 45.89L89.92 45.89L89.92 45.88L89.92 45.88L89.92 45.88L89.92 45.88L89.92 45.88L89.92 45.87L89.92 45.87L89.92 45.87L89.92 45.87L89.92 45.87L89.92 45.86L89.92 45.86L89.92 45.86L89.92 45.86L89.92 45.86L89.92 45.85L89.92 45.85L89.92 45.85L89.92 45.85L89.92 45.84L89.92 45.84L89.92 45.84L89.92 45.84L89.92 45.84L89.92 45.83L89.92 45.83L89.92 45.83L89.92 45.83L89.92 45.83L89.92 45.82L89.92 45.82L89.92 45.82L89.92 45.82L89.92 45.82L89.92 45.81L89.92 45.81L89.92 45.81L89.92 45.81L89.92 45.81L89.92 45.8L89.92 45.8L89.92 45.8L89.92 45.8L89.92 45.8L89.92 45.79L89.92 45.79L89.92 45.79L89.92 45.79L89.92 45.79L89.92 45.78L89.92 45.78L89.92 45.78L89.92 45.78L89.92 45.78L89.92 45.77L89.92 45.77L89.92 45.77L89.92 45.77L89.92 45.77L89.92 45.76L89.92 45.76L89.92 45.76L89.92 45.76L89.92 45.76L89.92 45.75L89.92 45.75L89.92 45.75L89.92 45.75L89.92 45.75L89.92 45.74L89.92 45.74L89.92 45.74L89.92 45.74L89.92 45.74L89.92 45.73L89.92 45.73L89.92 45.73L89.92 45.73L89.92 45.73L89.92 45.73L89.92 45.72L89.92 45.72L89.92 45.72L89.92 45.72L89.92 45.72L89.92 45.71L89.92 45.71L89.92 45.71L89.92 45.71L89.92 45.71L89.92 45.7L89.92 45.7L89.92 45.7L89.92 45.7L89.92 45.7L89.92 45.69L89.92 45.69L89.92 45.69L89.92 45.69L89.92 45.69L89.92 45.69L89.92 45.68L89.92 45.68L89.92 45.68L89.92 45.68L89.92 45.68L89.92 45.67L89.92 45.67L89.92 45.67L89.92 45.67L89.92 45.67L89.92 45.66L89.92 45.66L89.92 45.66L89.92 45.66L89.92 45.66L89.92 45.66L89.92 45.65L89.92 45.65L89.92 45.65L89.92 45.65L89.92 45.65L89.92 45.64L89.92 45.64L89.92 45.64L89.92 45.64L89.92 45.64L89.92 45.64L89.92 45.63L89.92 45.63L89.92 45.63L89.92 45.63L89.92 45.63L89.92 45.62L89.92 45.62L89.92 45.62L89.92 45.62L89.92 45.62L89.92 45.62L89.92 45.61L89.92 45.61L89.92 45.61L89.92 45.61L89.92 45.61L89.92 45.6L89.92 45.6L89.92 45.6L89.92 45.6L89.92 45.6L89.92 45.6L89.92 45.59L89.92 45.59L89.92 45.59L89.92 45.59L89.92 45.59L89.92 45.58L89.92 45.58L89.92 45.58L89.92 45.58L89.92 45.58L89.92 45.58L89.92 45.57L89.92 45.57L89.92 45.57L89.92 45.57L89.92 45.57L89.92 45.57L89.92 45.56L89.92 45.56L89.92 45.56L89.92 45.56L89.92 45.56L89.92 45.55L89.92 45.55L89.92 45.55L89.92 45.55L89.92 45.55L89.92 45.55L89.92 45.54L89.92 45.54L89.92 45.54L89.92 45.54L89.92 45.54L89.92 45.54L89.92 45.53L89.92 45.53L89.92 45.53L89.92 45.53L89.92 45.53L89.92 45.52L89.92 45.52L89.92 45.52L89.92 45.52L89.92 45.52L89.92 45.52L89.92 45.51L89.92 45.51L89.92 45.51L89.92 45.51L89.92 45.51L89.92 45.5L89.92 45.5L89.92 45.5L89.92 45.5L89.92 45.5L89.92 45.5L89.92 45.49L89.92 45.49L89.92 45.49L89.92 45.49L89.92 45.49L89.92 45.49L89.92 45.48L89.92 45.48L89.92 45.48L89.92 45.48L89.92 45.48L89.92 45.47L89.92 45.47L89.92 45.47L89.92 45.47L89.92 45.47L89.92 45.47L89.92 45.46L89.92 45.46L89.92 45.46L89.92 45.46L89.92 45.46L89.92 45.46L89.92 45.45L89.92 45.45L89.92 45.45L89.92 45.45L89.92 45.45L89.92 45.44L89.92 45.44L89.92 45.44L89.92 45.44L89.92 45.44L89.92 45.43L89.92 45.43L89.92 45.43L89.92 45.43L89.92 45.43L89.92 45.43L89.92 45.42L89.92 45.42L89.92 45.42L89.92 45.42L89.92 45.42L89.92 45.41L89.92 45.41L89.92 45.41L89.92 45.41L89.92 45.41L89.92 45.41L89.92 45.4L89.92 45.4L89.92 45.4L89.92 45.4L89.92 45.4L89.92 45.4L89.92 45.39L89.92 45.39L89.92 45.39L89.92 45.39L89.92 45.39L89.92 45.38L89.92 45.38L89.92 45.38L89.92 45.38L89.92 45.38L89.92 45.38L89.92 45.37L89.92 45.37L89.92 45.37L89.92 45.37L89.92 45.37L89.92 45.36L89.92 45.36L89.92 45.36L89.92 45.36L89.92 45.36L89.92 45.36L89.92 45.35L89.92 45.35L89.92 45.35L89.92 45.35L89.92 45.35L89.92 45.34L89.92 45.34L89.92 45.34L89.92 45.34L89.92 45.34L89.92 45.33L89.92 45.33L89.92 45.33L89.92 45.33L89.92 45.33L89.92 45.33L89.92 45.32L89.92 45.32L89.92 45.32L89.92 45.32L89.92 45.32L89.92 45.31L89.92 45.31L89.92 45.31L89.92 45.31L89.92 45.31L89.92 45.31L89.92 45.3L89.92 45.3L89.92 45.3L89.92 45.3L89.92 45.3L89.92 45.29L89.92 45.29L89.92 45.29L89.92 45.29L89.92 45.29L89.92 45.28L89.92 45.28L89.92 45.28L89.92 45.28L89.92 45.28L89.92 45.27L89.92 45.27L89.92 45.27L89.92 45.27L89.92 45.27L89.92 45.27L89.92 45.26L89.92 45.26L89.92 45.26L89.92 45.26L89.92 45.26L89.92 45.25L89.92 45.25L89.92 45.25L89.92 45.25L89.92 45.25L89.92 45.24L89.92 45.24L89.92 45.24L89.92 45.24L89.92 45.24L89.92 45.23L89.92 45.23L89.92 45.23L89.92 45.23L89.92 45.23L89.92 45.22L89.92 45.22L89.92 45.22L89.92 45.22L89.92 45.22L89.92 45.21L89.92 45.21L89.92 45.21L89.92 45.21L89.92 45.21L89.92 45.2L89.92 45.2L89.92 45.2L89.92 45.2L89.92 45.2L89.92 45.19L89.92 45.19L89.92 45.19L89.92 45.19L89.92 45.19L89.92 45.18L89.92 45.18L89.92 45.18L89.92 45.18L89.92 45.18L89.92 45.17L89.92 45.17L89.92 45.17L89.92 45.17L89.92 45.17L89.92 45.16L89.92 45.16L89.92 45.16L89.92 45.16L89.92 45.16L89.92 45.15L89.92 45.15L89.92 45.15L89.92 45.15L89.92 45.14L89.92 45.14L89.92 45.14L89.92 45.14L89.92 45.14L89.92 45.13L89.92 45.13L89.92 45.13L89.92 45.13L89.92 45.13L89.92 45.12L89.92 45.12L89.92 45.12L89.92 45.12L89.92 45.12L89.92 45.11L89.92 45.11L89.92 45.11L89.92 45.11L89.92 45.1L89.92 45.1L89.92 45.1L89.92 45.1L89.92 45.1L89.92 45.09L89.92 45.09L89.92 45.09L89.92 45.09L89.92 45.08L89.92 45.08L89.92 45.08L89.92 45.08L89.92 45.08L89.92 45.07L89.92 45.07L89.92 45.07L89.92 45.07L89.92 45.06L89.92 45.06L89.92 45.06L89.92 45.06L89.92 45.06L89.92 45.05L89.92 45.05L89.92 45.05L89.92 45.05L89.92 45.04L89.92 45.04L89.92 45.04L89.92 45.04L89.92 45.04L89.92 45.03L89.92 45.03L89.92 45.03L89.92 45.03L89.92 45.02L89.92 45.02L89.92 45.02L89.92 45.02L89.92 45.01L89.92 45.01L89.92 45.01L89.92 45.01L89.92 45L89.92 45L89.92 45L89.92 45L89.92 45C89.92 34.37 86.04 24.37 79.91 16.81L79.62 16.45L79.27 16.77C71.02 24.42 61.56 30.45 51.5 34.68L51.03 34.87L51.29 35.31C53.49 39.12 55.1 43.13 56.72 47.18L56.85 47.52L57.21 47.45C63.45 46.24 69.69 45.64 76.13 45.64C80.17 45.64 85.2 45.84 89.42 46.44L89.92 46.52ZM77.38 13.87L77.05 13.54C68.89 5.38 57.66 0.07 44.8 -0.13L44.79 -0.13C38.26 -0.13 31.93 1.3 26.21 3.95L25.56 4.25L26.11 4.7C35.58 12.35 43.43 21.41 49.26 31.47L49.46 31.8L49.81 31.65C59.77 27.59 68.92 21.7 77.04 14.18L77.38 13.87ZM22.59 6.04L22.33 6.2C10.89 12.93 2.72 24.57 0.68 38.05L0.61 38.49L1.05 38.56C4.92 39.17 8.79 39.37 12.64 39.37C24.22 39.37 35.4 37.34 45.96 33.27L46.45 33.09L46.18 32.64C40.29 22.68 32.37 13.74 22.82 6.23L22.59 6.04ZM0.07 41.65L0.07 42.16L0.07 42.17L0.07 42.18L0.07 42.18L0.07 42.19L0.07 42.19L0.07 42.2L0.07 42.21L0.07 42.21L0.07 42.22L0.07 42.22L0.07 42.23L0.07 42.24L0.07 42.24L0.07 42.25L0.07 42.25L0.07 42.26L0.07 42.26L0.07 42.27L0.07 42.28L0.07 42.28L0.07 42.29L0.07 42.29L0.07 42.3L0.07 42.31L0.07 42.31L0.07 42.32L0.07 42.32L0.07 42.33L0.07 42.33L0.07 42.34L0.07 42.35L0.07 42.35L0.07 42.36L0.07 42.36L0.07 42.37L0.07 42.37L0.07 42.38L0.07 42.39L0.07 42.39L0.07 42.4L0.07 42.4L0.07 42.41L0.07 42.41L0.07 42.42L0.07 42.43L0.07 42.43L0.07 42.44L0.07 42.44L0.07 42.45L0.07 42.46L0.07 42.46L0.07 42.47L0.07 42.47L0.07 42.48L0.07 42.48L0.07 42.49L0.07 42.5L0.07 42.5L0.07 42.51L0.07 42.51L0.07 42.52L0.07 42.52L0.07 42.53L0.07 42.54L0.07 42.54L0.07 42.55L0.07 42.55L0.07 42.56L0.07 42.56L0.07 42.57L0.07 42.57L0.07 42.58L0.07 42.59L0.07 42.59L0.07 42.6L0.07 42.6L0.07 42.61L0.07 42.61L0.07 42.62L0.07 42.62L0.07 42.63L0.07 42.64L0.07 42.64L0.07 42.65L0.07 42.65L0.07 42.66L0.07 42.66L0.07 42.67L0.07 42.68L0.07 42.68L0.07 42.69L0.07 42.69L0.07 42.7L0.07 42.7L0.07 42.71L0.07 42.71L0.07 42.72L0.07 42.73L0.07 42.73L0.07 42.74L0.07 42.74L0.07 42.75L0.07 42.75L0.07 42.76L0.07 42.76L0.07 42.77L0.07 42.78L0.07 42.78L0.07 42.79L0.07 42.79L0.07 42.8L0.07 42.8L0.07 42.81L0.07 42.81L0.07 42.82L0.07 42.83L0.07 42.83L0.07 42.84L0.07 42.84L0.07 42.85L0.07 42.85L0.07 42.86L0.07 42.86L0.07 42.87L0.07 42.87L0.07 42.88L0.07 42.89L0.07 42.89L0.07 42.9L0.07 42.9L0.07 42.91L0.07 42.91L0.07 42.92L0.07 42.92L0.07 42.93L0.07 42.93L0.07 42.94L0.07 42.95L0.07 42.95L0.07 42.96L0.07 42.96L0.07 42.97L0.07 42.97L0.07 42.98L0.07 42.98L0.07 42.99L0.07 43L0.07 43L0.07 43.01L0.07 43.01L0.07 43.02L0.07 43.02L0.07 43.03L0.07 43.03L0.07 43.04L0.07 43.04L0.07 43.05L0.07 43.05L0.07 43.06L0.07 43.07L0.07 43.07L0.07 43.08L0.07 43.08L0.07 43.09L0.07 43.09L0.07 43.1L0.07 43.1L0.07 43.11L0.07 43.11L0.07 43.12L0.07 43.12L0.07 43.13L0.07 43.14L0.07 43.14L0.07 43.15L0.07 43.15L0.07 43.16L0.07 43.16L0.07 43.17L0.07 43.17L0.07 43.18L0.07 43.18L0.07 43.19L0.07 43.2L0.07 43.2L0.07 43.21L0.07 43.21L0.07 43.22L0.07 43.22L0.07 43.23L0.07 43.23L0.07 43.24L0.07 43.24L0.07 43.25L0.07 43.25L0.07 43.26L0.07 43.26L0.07 43.27L0.07 43.28L0.07 43.28L0.07 43.29L0.07 43.29L0.07 43.3L0.07 43.3L0.07 43.31L0.07 43.31L0.07 43.32L0.07 43.32L0.07 43.33L0.07 43.33L0.07 43.34L0.07 43.34L0.07 43.35L0.07 43.36L0.07 43.36L0.07 43.37L0.07 43.37L0.07 43.38L0.07 43.38L0.07 43.39L0.07 43.39L0.07 43.4L0.07 43.4L0.07 43.41L0.07 43.41L0.07 43.42L0.07 43.43L0.07 43.43L0.07 43.44L0.07 43.44L0.07 43.45L0.07 43.45L0.07 43.46L0.07 43.46L0.07 43.47L0.07 43.47L0.07 43.48L0.07 43.48L0.07 43.49L0.07 43.5L0.07 43.5L0.07 43.5L0.07 43.51L0.07 43.52L0.07 43.52L0.07 43.53L0.07 43.53L0.07 43.54L0.07 43.54L0.07 43.55L0.07 43.55L0.07 43.56L0.07 43.56L0.07 43.57L0.07 43.57L0.07 43.58L0.07 43.58L0.07 43.59L0.07 43.6L0.07 43.6L0.07 43.61L0.07 43.61L0.07 43.62L0.07 43.62L0.07 43.63L0.07 43.63L0.07 43.64L0.07 43.64L0.07 43.65L0.07 43.65L0.07 43.66L0.07 43.66L0.07 43.67L0.07 43.68L0.07 43.68L0.07 43.69L0.07 43.69L0.07 43.7L0.07 43.7L0.07 43.71L0.07 43.71L0.07 43.72L0.07 43.72L0.07 43.73L0.07 43.73L0.07 43.74L0.07 43.75L0.07 43.75L0.07 43.76L0.07 43.76L0.07 43.77L0.07 43.77L0.07 43.78L0.07 43.78L0.07 43.79L0.07 43.79L0.07 43.8L0.07 43.8L0.07 43.81L0.07 43.81L0.07 43.82L0.07 43.83L0.07 43.83L0.07 43.84L0.07 43.84L0.07 43.85L0.07 43.85L0.07 43.86L0.07 43.86L0.07 43.87L0.07 43.87L0.07 43.88L0.07 43.88L0.07 43.89L0.07 43.9L0.07 43.9L0.07 43.91L0.07 43.91L0.07 43.92L0.07 43.92L0.07 43.93L0.07 43.93L0.07 43.94L0.07 43.94L0.07 43.95L0.07 43.95L0.07 43.96L0.07 43.96L0.07 43.97L0.07 43.98L0.07 43.98L0.07 43.99L0.07 43.99L0.07 44L0.07 44L0.07 44.01L0.07 44.01L0.07 44.02L0.07 44.02L0.07 44.03L0.07 44.04L0.07 44.04L0.07 44.05L0.07 44.05L0.07 44.06L0.07 44.06L0.07 44.07L0.07 44.07L0.07 44.08L0.07 44.08L0.07 44.09L0.07 44.09L0.07 44.1L0.07 44.11L0.07 44.11L0.07 44.12L0.07 44.12L0.07 44.13L0.07 44.13L0.07 44.14L0.07 44.14L0.07 44.15L0.07 44.15L0.07 44.16L0.07 44.16L0.07 44.17L0.07 44.18L0.07 44.18L0.07 44.19L0.07 44.19L0.07 44.2L0.07 44.2L0.07 44.21L0.07 44.21L0.07 44.22L0.07 44.22L0.07 44.23L0.07 44.24L0.07 44.24L0.07 44.25L0.07 44.25L0.07 44.26L0.07 44.26L0.07 44.27L0.07 44.27L0.07 44.28L0.07 44.29L0.07 44.29L0.07 44.3L0.07 44.3L0.07 44.31L0.07 44.31L0.07 44.32L0.07 44.32L0.07 44.33L0.07 44.33L0.07 44.34L0.07 44.35L0.07 44.35L0.07 44.36L0.07 44.36L0.07 44.37L0.07 44.37L0.07 44.38L0.07 44.38L0.07 44.39L0.07 44.4L0.07 44.4L0.07 44.41L0.07 44.41L0.07 44.42L0.07 44.42L0.07 44.43L0.07 44.43L0.07 44.44L0.07 44.45L0.07 44.45L0.07 44.46L0.07 44.46L0.07 44.47L0.07 44.47L0.07 44.48L0.07 44.48L0.07 44.49L0.07 44.5L0.07 44.5L0.07 44.51L0.07 44.51L0.07 44.52L0.07 44.52L0.07 44.53L0.07 44.54L0.07 44.54L0.07 44.55L0.07 44.55L0.07 44.56L0.07 44.56L0.07 44.57L0.07 44.57L0.07 44.58L0.07 44.58L0.07 44.59L0.07 44.6L0.07 44.6L0.07 44.61L0.07 44.61L0.07 44.62L0.07 44.62L0.07 44.63L0.07 44.64L0.07 44.64L0.07 44.65L0.07 44.65L0.07 44.66L0.07 44.66L0.07 44.67L0.07 44.68L0.07 44.68L0.07 44.69L0.07 44.69L0.07 44.7L0.07 44.71L0.07 44.71L0.07 44.72L0.07 44.72L0.07 44.73L0.07 44.73L0.07 44.74L0.07 44.75L0.07 44.75L0.07 44.76L0.07 44.76L0.07 44.77L0.07 44.77L0.07 44.78L0.07 44.79L0.07 44.79L0.07 44.8L0.07 44.8L0.07 44.81L0.07 44.81L0.07 44.82L0.07 44.83L0.07 44.83L0.07 44.84L0.07 44.84L0.07 44.85L0.07 44.85L0.07 44.86L0.07 44.87L0.07 44.87L0.07 44.88L0.07 44.88L0.07 44.89L0.07 44.9L0.07 44.9L0.07 44.91L0.07 44.91L0.07 44.92L0.07 44.92L0.07 44.93L0.07 44.94L0.07 44.94L0.07 44.95L0.07 44.95L0.07 44.96L0.07 44.97L0.07 44.97L0.07 44.98L0.07 44.98L0.07 44.99L0.07 45C0.07 55 3.34 63.99 8.85 71.54L9.14 71.94L9.5 71.61C21.99 60.13 36.88 52.08 52.98 48.26L53.47 48.14L53.3 47.67C51.88 43.82 50.25 39.96 48.21 36.29L48.03 35.95L47.67 36.09C36.6 40.32 24.72 42.53 12.64 42.53C8.61 42.53 4.59 42.33 0.58 41.73L0.07 41.65ZM11.02 74.28L11.3 74.6C19.47 84 31.52 89.92 45 89.92C49.9 89.92 54.59 89.1 59.08 87.68L59.36 87.59L59.39 87.3C59.59 85.26 59.59 83.42 59.59 81.4L59.59 81.39C59.59 71.03 57.97 61.08 54.71 51.53L54.59 51.15L54.2 51.24C38.35 54.9 23.52 62.62 11.33 73.99L11.02 74.28ZM62.75 86.32L63.37 86.04C77.46 79.71 87.88 66.24 89.72 50.1L89.77 49.65L89.32 49.61C85.07 49.21 80.2 48.8 76.13 48.8C70.04 48.8 64.15 49.41 58.27 50.42L57.76 50.51L57.92 51C61.14 60.66 62.75 70.92 62.75 81.39L62.75 81.4L62.75 81.41L62.75 81.42L62.75 81.43L62.75 81.43L62.75 81.44L62.75 81.45L62.75 81.46L62.75 81.47L62.75 81.48L62.75 81.48L62.75 81.49L62.75 81.5L62.75 81.51L62.75 81.52L62.75 81.53L62.75 81.53L62.75 81.54L62.75 81.55L62.75 81.56L62.75 81.57L62.75 81.58L62.75 81.58L62.75 81.59L62.75 81.6L62.75 81.61L62.75 81.62L62.75 81.62L62.75 81.63L62.75 81.64L62.75 81.65L62.75 81.66L62.75 81.67L62.75 81.67L62.75 81.68L62.75 81.69L62.75 81.7L62.75 81.71L62.75 81.72L62.75 81.72L62.75 81.73L62.75 81.74L62.75 81.75L62.75 81.76L62.75 81.77L62.75 81.77L62.75 81.78L62.75 81.79L62.75 81.8L62.75 81.81L62.75 81.82L62.75 81.82L62.75 81.83L62.75 81.84L62.75 81.85L62.75 81.86L62.75 81.87L62.75 81.87L62.75 81.88L62.75 81.89L62.75 81.9L62.75 81.91L62.75 81.91L62.75 81.92L62.75 81.93L62.75 81.94L62.75 81.95L62.75 81.96L62.75 81.96L62.75 81.97L62.75 81.98L62.75 81.99L62.75 82L62.75 82.01L62.75 82.01L62.75 82.02L62.75 82.03L62.75 82.04L62.75 82.05L62.75 82.06L62.75 82.06L62.75 82.07L62.75 82.08L62.75 82.09L62.75 82.1L62.75 82.11L62.75 82.11L62.75 82.12L62.75 82.13L62.75 82.14L62.75 82.15L62.75 82.16L62.75 82.16L62.75 82.17L62.75 82.18L62.75 82.19L62.75 82.2L62.75 82.21L62.75 82.21L62.75 82.22L62.75 82.23L62.75 82.24L62.75 82.25L62.75 82.25L62.75 82.26L62.75 82.27L62.75 82.28L62.75 82.29L62.75 82.3L62.75 82.3L62.75 82.31L62.75 82.32L62.75 82.33L62.75 82.34L62.75 82.35L62.75 82.35L62.75 82.36L62.75 82.37L62.75 82.38L62.75 82.39L62.75 82.4L62.75 82.4L62.75 82.41L62.75 82.42L62.75 82.43L62.75 82.44L62.75 82.45L62.75 82.45L62.75 82.46L62.75 82.47L62.75 82.48L62.75 82.49L62.75 82.5L62.75 82.5L62.75 82.51L62.75 82.52L62.75 82.53L62.75 82.54L62.75 82.54L62.75 82.55L62.75 82.56L62.75 82.57L62.75 82.58L62.75 82.59L62.75 82.59L62.75 82.6L62.75 82.61L62.75 82.62L62.75 82.63L62.75 82.64L62.75 82.64L62.75 82.65L62.75 82.66L62.75 82.67L62.75 82.68L62.75 82.69L62.75 82.69L62.75 82.7L62.75 82.71L62.75 82.72L62.75 82.73L62.75 82.74L62.75 82.74L62.75 82.75L62.75 82.76L62.75 82.77L62.75 82.78L62.75 82.79L62.75 82.79L62.75 82.8L62.75 82.81L62.75 82.82L62.75 82.83L62.75 82.84L62.75 82.84L62.75 82.85L62.75 82.86L62.75 82.87L62.75 82.88L62.75 82.89L62.75 82.89L62.75 82.9L62.75 82.91L62.75 82.92L62.75 82.93L62.75 82.94L62.75 82.94L62.75 82.95L62.75 82.96L62.75 82.97L62.75 82.98L62.75 82.99L62.75 82.99L62.75 83L62.75 83.01L62.75 83.02L62.75 83.03L62.75 83.03L62.75 83.04L62.75 83.05L62.75 83.06L62.75 83.07L62.75 83.08L62.75 83.08L62.75 83.09L62.75 83.1L62.75 83.11L62.75 83.12L62.75 83.13L62.75 83.13L62.75 83.14L62.75 83.15L62.75 83.16L62.75 83.17L62.75 83.18L62.75 83.18L62.75 83.19L62.75 83.2L62.75 83.21L62.75 83.22L62.75 83.23L62.75 83.23L62.75 83.24L62.75 83.25L62.75 83.26L62.75 83.27L62.75 83.28L62.75 83.28L62.75 83.29L62.75 83.3L62.75 83.31L62.75 83.32L62.75 83.33L62.75 83.33L62.75 83.34L62.75 83.35L62.75 83.36L62.75 83.37L62.75 83.37L62.75 83.38L62.75 83.39L62.75 83.4L62.75 83.41L62.75 83.42L62.75 83.42L62.75 83.43L62.75 83.44L62.75 83.45L62.75 83.46L62.75 83.47L62.75 83.47L62.75 83.48L62.75 83.49L62.75 83.5L62.75 83.51L62.75 83.52L62.75 83.52L62.75 83.53L62.75 83.54L62.75 83.55L62.75 83.56L62.75 83.57L62.75 83.57L62.75 83.58L62.75 83.59L62.75 83.6L62.75 83.61L62.75 83.62L62.75 83.62L62.75 83.63L62.75 83.64L62.75 83.65L62.75 83.66L62.75 83.66L62.75 83.67L62.75 83.68L62.75 83.69L62.75 83.7L62.75 83.71L62.75 83.71L62.75 83.72L62.75 83.73L62.75 83.74L62.75 83.75L62.75 83.76L62.75 83.76L62.75 83.77L62.75 83.78L62.75 83.79L62.75 83.8L62.75 83.81L62.75 83.81L62.75 83.82L62.75 83.83L62.75 83.84L62.75 83.85L62.75 83.86L62.75 83.86L62.75 83.87L62.75 83.88L62.75 83.89L62.75 83.9L62.75 83.91L62.75 83.91L62.75 83.92L62.75 83.93L62.75 83.94L62.75 83.95L62.75 83.96L62.75 83.96L62.75 83.97L62.75 83.98L62.75 83.99L62.75 84L62.75 84L62.75 84.01L62.75 84.02L62.75 84.03L62.75 84.04L62.75 84.05L62.75 84.05L62.75 84.06L62.75 84.07L62.75 84.08L62.75 84.09L62.75 84.1L62.75 84.1L62.75 84.11L62.75 84.12L62.75 84.13L62.75 84.14L62.75 84.15L62.75 84.15L62.75 84.16L62.75 84.17L62.75 84.18L62.75 84.19L62.75 84.2L62.75 84.2L62.75 84.21L62.75 84.22L62.75 84.23L62.75 84.24L62.75 84.25L62.75 84.25L62.75 84.26L62.75 84.27L62.75 84.28L62.75 84.29L62.75 84.29L62.75 84.3L62.75 84.31L62.75 84.32L62.75 84.33L62.75 84.34L62.75 84.34L62.75 84.35L62.75 84.36L62.75 84.37L62.75 84.38L62.75 84.39L62.75 84.39L62.75 84.4L62.75 84.41L62.75 84.42L62.75 84.43L62.75 84.44L62.75 84.44L62.75 84.45L62.75 84.46L62.75 84.47L62.75 84.48L62.75 84.49L62.75 84.49L62.75 84.5L62.75 84.51L62.75 84.52L62.75 84.53L62.75 84.54L62.75 84.54L62.75 84.55L62.75 84.56L62.75 84.57L62.75 84.58L62.75 84.59L62.75 84.59L62.75 84.6L62.75 84.61L62.75 84.62L62.75 84.63L62.75 84.64L62.75 84.64L62.75 84.65L62.75 84.66L62.75 84.67L62.75 84.68L62.75 84.69L62.75 84.69L62.75 84.7L62.75 84.71L62.75 84.72L62.75 84.73L62.75 84.74L62.75 84.74L62.75 84.75L62.75 84.76L62.75 84.77L62.75 84.78L62.75 84.78L62.75 84.79L62.75 84.8L62.75 84.81L62.75 84.82L62.75 84.83L62.75 84.83L62.75 84.84L62.75 84.85L62.75 84.86L62.75 84.87L62.75 84.88L62.75 84.88L62.75 84.89L62.75 84.9L62.75 84.91L62.75 84.92L62.75 84.93L62.75 84.93L62.75 84.94L62.75 84.95L62.75 84.96L62.75 84.97L62.75 84.98L62.75 84.98L62.75 84.99L62.75 85L62.75 85.01L62.75 85.02L62.75 85.03L62.75 85.03L62.75 85.04L62.75 85.05L62.75 85.06L62.75 85.07L62.75 85.08L62.75 85.08L62.75 85.09L62.75 85.1L62.75 85.11L62.75 85.12L62.75 85.12L62.75 85.13L62.75 85.14L62.75 85.15L62.75 85.16L62.75 85.17L62.75 85.17L62.75 85.18L62.75 85.19L62.75 85.2L62.75 85.21L62.75 85.22L62.75 85.22L62.75 85.23L62.75 85.24L62.75 85.25L62.75 85.26L62.75 85.27L62.75 85.27L62.75 85.28L62.75 85.29L62.75 85.3L62.75 85.31L62.75 85.32L62.75 85.32L62.75 85.33L62.75 85.34L62.75 85.35L62.75 85.36L62.75 85.37L62.75 85.37L62.75 85.38L62.75 85.39L62.75 85.4L62.75 85.41L62.75 85.41L62.75 85.42L62.75 85.43L62.75 85.44L62.75 85.45L62.75 85.46L62.75 85.46L62.75 85.47L62.75 85.48L62.75 85.49L62.75 85.5L62.75 85.51L62.75 85.51L62.75 85.52L62.75 85.53L62.75 85.54L62.75 85.55L62.75 85.56L62.75 85.56L62.75 85.57L62.75 85.58L62.75 85.59L62.75 85.6L62.75 85.61L62.75 85.61L62.75 85.62L62.75 85.63L62.75 85.64L62.75 86.32ZM45 -3.09C71.44 -3.09 93.08 18.55 93.08 45C93.08 71.44 71.44 93.08 45 93.08C18.55 93.08 -3.09 71.44 -3.09 45C-3.09 18.55 18.55 -3.09 45 -3.09Z" stroke="#FFFFFF" stroke-opacity="1.000000" stroke-width="1.000000"/>
		</g>
	</g>
</svg>
