<svg width="90.000000" height="90.000000" viewBox="0 0 90 90" fill="none" xmlns="http://www.w3.org/2000/svg" xmlns:xlink="http://www.w3.org/1999/xlink">
	<desc>
			Created with Pixso.
	</desc>
	<defs>
		<clipPath id="clip1_1261">
			<rect id="IMAGE" width="90.000000" height="90.000000" fill="white" fill-opacity="0"/>
		</clipPath>
	</defs>
	<g clip-path="url(#clip1_1261)">
		<path id="Vector" d="M0 3.52C0 1.58 1.58 0 3.52 0L86.47 0C88.41 0 90 1.58 90 3.52L90 86.47C90 88.41 88.41 90 86.47 90L3.52 90C1.58 90 0 88.41 0 86.47L0 3.52ZM1.76 5.29C1.76 3.34 3.34 1.76 5.29 1.76L26.47 1.76C28.41 1.76 30 3.34 30 5.29L30 18.52C30 20.47 28.41 22.05 26.47 22.05L5.29 22.05C3.34 22.05 1.76 20.47 1.76 18.52L1.76 5.29ZM35.29 1.76C33.34 1.76 31.76 3.34 31.76 5.29L31.76 40.58C31.76 42.53 33.34 44.11 35.29 44.11L84.7 44.11C86.65 44.11 88.23 42.53 88.23 40.58L88.23 5.29C88.23 3.34 86.65 1.76 84.7 1.76L35.29 1.76ZM2.64 49.41C2.64 47.46 4.22 45.88 6.17 45.88L56.47 45.88C58.41 45.88 60 47.46 60 49.41L60 84.7C60 86.65 58.41 88.23 56.47 88.23L6.17 88.23C4.22 88.23 2.64 86.65 2.64 84.7L2.64 49.41ZM65.29 45.88C63.34 45.88 61.76 47.46 61.76 49.41L61.76 84.7C61.76 86.65 63.34 88.23 65.29 88.23L84.7 88.23C86.65 88.23 88.23 86.65 88.23 84.7L88.23 49.41C88.23 47.46 86.65 45.88 84.7 45.88L65.29 45.88Z" fill="#FFFFFF" fill-opacity="1.000000" fill-rule="evenodd"/>
	</g>
</svg>
