<svg width="90.000000" height="90.000000" viewBox="0 0 90 90" fill="none" xmlns="http://www.w3.org/2000/svg" xmlns:xlink="http://www.w3.org/1999/xlink">
	<desc>
			Created with Pixso.
	</desc>
	<defs/>
	<path id="Vector" d="M3.52 0C1.58 0 0 1.58 0 3.52L0 86.47C0 88.41 1.58 90 3.52 90L86.47 90C88.41 90 90 88.41 90 86.47L90 3.52C90 1.58 88.41 0 86.47 0L3.52 0ZM84.7 66.17C86.65 66.17 88.23 64.59 88.23 62.64L88.23 84.7C88.23 86.65 86.65 88.23 84.7 88.23L5.29 88.23C3.34 88.23 1.76 86.65 1.76 84.7L1.76 62.64C1.76 64.59 3.34 66.17 5.29 66.17L84.7 66.17ZM10.58 8.38C10.58 9.6 9.6 10.58 8.38 10.58C7.16 10.58 6.17 9.6 6.17 8.38C6.17 7.16 7.16 6.17 8.38 6.17C9.6 6.17 10.58 7.16 10.58 8.38ZM16.76 8.38C16.76 9.6 15.77 10.58 14.55 10.58C13.34 10.58 12.35 9.6 12.35 8.38C12.35 7.16 13.34 6.17 14.55 6.17C15.77 6.17 16.76 7.16 16.76 8.38ZM20.73 10.58C21.95 10.58 22.94 9.6 22.94 8.38C22.94 7.16 21.95 6.17 20.73 6.17C19.51 6.17 18.52 7.16 18.52 8.38C18.52 9.6 19.51 10.58 20.73 10.58ZM23.71 35.08C27.55 35.08 30.66 31.96 30.66 28.12C30.66 24.28 27.55 21.17 23.71 21.17C19.87 21.17 16.76 24.28 16.76 28.12C16.76 31.96 19.87 35.08 23.71 35.08ZM52.91 28.17L41.64 39.46L39.93 37.74C38.28 36.09 35.61 36.09 33.97 37.74L19.34 52.39C19.14 52.59 19.29 52.94 19.57 52.94L54.33 52.94C54.61 52.94 54.75 52.59 54.55 52.39L48.28 46.11L76.01 46.11C76.3 46.11 76.44 45.77 76.24 45.57L58.87 28.17C57.23 26.53 54.56 26.53 52.91 28.17ZM48.28 46.11L41.64 39.46L35.55 45.57C35.34 45.77 35.49 46.11 35.77 46.11L48.28 46.11Z" fill="#FFFFFF" fill-opacity="1.000000" fill-rule="evenodd"/>
</svg>
