<svg width="131.000000" height="90.000000" viewBox="0 0 131 90" fill="none" xmlns="http://www.w3.org/2000/svg" xmlns:xlink="http://www.w3.org/1999/xlink">
	<desc>
			Created with Pixso.
	</desc>
	<defs>
		<clipPath id="clip1_1226">
			<rect id="IMAGE" width="131.000000" height="90.000000" fill="white" fill-opacity="0"/>
		</clipPath>
	</defs>
	<g clip-path="url(#clip1_1226)">
		<path id="Vector" d="M41.32 15L40.44 15C38.5 15 36.92 16.58 36.92 18.52L36.92 55.58C36.92 57.53 38.5 59.11 40.44 59.11L41.32 59.11C43.26 59.11 44.83 57.53 44.83 55.58L44.83 18.52C44.83 16.58 43.26 15 41.32 15Z" fill="#FFFFFF" fill-opacity="1.000000" fill-rule="nonzero"/>
		<path id="Vector" d="M70.49 10.58L50.11 10.58C48.17 10.58 46.59 12.16 46.59 14.11L46.59 59.66C46.59 61.61 48.17 63.19 50.11 63.19L70.49 63.19C72.43 63.19 74.01 61.61 74.01 59.66L74.01 14.11C74.01 12.16 72.43 10.58 70.49 10.58Z" fill="#FFFFFF" fill-opacity="1.000000" fill-rule="nonzero"/>
		<path id="Vector" d="M121.75 10.71L100.33 10.71C98.38 10.71 96.81 12.29 96.81 14.24L96.81 59.78C96.81 61.73 98.38 63.31 100.33 63.31L121.75 63.31C123.7 63.31 125.27 61.73 125.27 59.78L125.27 14.24C125.27 12.29 123.7 10.71 121.75 10.71Z" fill="#FFFFFF" fill-opacity="1.000000" fill-rule="nonzero"/>
		<path id="Vector" d="M130.25 61.7L130.25 12.32C130.25 11.43 129.53 10.71 128.64 10.71C127.75 10.71 127.03 11.43 127.03 12.32L127.03 61.7C127.03 62.59 127.75 63.31 128.64 63.31C129.53 63.31 130.25 62.59 130.25 61.7Z" fill="#FFFFFF" fill-opacity="1.000000" fill-rule="nonzero"/>
		<path id="Vector" d="M81.62 10.58L79.12 10.58C77.18 10.58 75.61 12.16 75.61 14.11L75.61 59.66C75.61 61.61 77.18 63.19 79.12 63.19L81.62 63.19C83.56 63.19 85.13 61.61 85.13 59.66L85.13 14.11C85.13 12.16 83.56 10.58 81.62 10.58Z" fill="#FFFFFF" fill-opacity="1.000000" fill-rule="nonzero"/>
		<path id="Vector" d="M33.4 0.88C35.83 0.88 37.8 2.85 37.8 5.29L37.8 84.7C37.8 87.14 35.83 89.11 33.4 89.11L5.27 89.11C2.84 89.11 0.87 87.14 0.87 84.7L0.87 5.29C0.87 2.85 2.84 0.88 5.27 0.88L33.4 0.88Z" stroke="#FFFFFF" stroke-opacity="1.000000" stroke-width="2.000000"/>
		<path id="Vector" d="M47.47 90L33.4 90L33.4 88.23C36.57 88.23 37.07 85.88 36.92 84.7L36.92 67.05L38.68 67.05L49.23 67.05L49.23 87.35C49.23 89.11 48.06 89.85 47.47 90Z" fill="#FFFFFF" fill-opacity="1.000000" fill-rule="nonzero"/>
	</g>
</svg>
