<svg width="90.000000" height="90.000000" viewBox="0 0 90 90" fill="none" xmlns="http://www.w3.org/2000/svg" xmlns:xlink="http://www.w3.org/1999/xlink">
	<defs>
		<clipPath id="clip1_1220">
			<rect id="IMAGE" width="90.000000" height="90.000000" fill="white" fill-opacity="0"/>
		</clipPath>
	</defs>
	<g clip-path="url(#clip1_1220)">
		<path id="Vector" d="M69.79 50.1C81.32 47.74 90 37.54 90 25.31C90 11.33 78.66 0 64.68 0C52.45 0 42.25 8.67 39.89 20.2C29.94 22.24 22.13 30.1 20.16 40.07C20.17 40.01 20.19 39.95 20.2 39.89C8.67 42.25 0 52.45 0 64.68C0 78.66 11.33 90 25.31 90C37.54 90 47.74 81.32 50.1 69.79C59.98 67.77 67.77 59.98 69.79 50.1ZM68.2 50.38C65.76 60.94 56.3 68.81 45 68.81C31.84 68.81 21.18 58.15 21.18 45C21.18 33.7 29.05 24.23 39.61 21.79C39.45 22.94 39.37 24.12 39.37 25.31C39.37 39.29 50.7 50.62 64.68 50.62C65.87 50.62 67.05 50.54 68.2 50.38ZM45 70.31C46.09 70.31 47.17 70.24 48.23 70.1C45.78 80.5 36.45 88.23 25.31 88.23C12.3 88.23 1.76 77.69 1.76 64.68C1.76 53.54 9.49 44.21 19.89 41.76C19.75 42.82 19.68 43.9 19.68 45C19.68 58.97 31.02 70.31 45 70.31Z" fill="#FFFFFF" fill-opacity="1.000000" fill-rule="evenodd"/>
	</g>
</svg>
